<?xml version="1.0" encoding="windows-1252"?>
<!-- Generator: Adobe Illustrator 29.4.0, SVG Export Plug-In . SVG Version: 9.03 Build 0)  -->
<svg version="1.1" id="pckt.cafe" xmlns="http://www.w3.org/2000/svg" xmlns:xlink="http://www.w3.org/1999/xlink" x="0px" y="0px" width="377.053px" height="105.096px" viewBox="0 0 377.053 105.096" enable-background="new 0 0 377.053 105.096" xml:space="preserve">
<path fill="#FFCA46" d="M243.693,60.016c2.94-0.38,4.22,0.77,4.09,3.58l-0.89,15.49c-0.13,3.07-1.8,4.87-4.48,5.51  c-3.72,0.89-8.71,1.53-13.44,1.53c-20.23,0-28.29-10.37-28.29-31.61v-10.43c-0.61,0.02-1.21,0.04-1.79,0.07  c-0.48,0.02-0.94-0.03-1.37-0.16h-0.01c-0.53-0.15-1.02-0.4-1.45-0.74c-0.01,0-0.01-0.01-0.02-0.01c-0.16-0.13-0.31-0.27-0.45-0.42  c-0.01-0.01-0.02-0.02-0.03-0.03c-0.21-0.23-0.4-0.49-0.55-0.76c-0.01-0.02-0.02-0.03-0.03-0.05c-0.09-0.18-0.17-0.36-0.24-0.55  c-0.01-0.02-0.01-0.03-0.02-0.05c-0.03-0.09-0.06-0.18-0.09-0.27c0-0.02-0.01-0.04-0.01-0.06c-0.05-0.2-0.08-0.4-0.1-0.6  c-0.01-0.04-0.01-0.08-0.01-0.13c-0.01-0.02-0.01-0.04-0.01-0.06c0-0.06,0-0.13,0-0.19v-8.32c0-1.75,0.76-3.41,2.09-4.55  c2.07-1.79,5.33-4.61,8.21-7.15c1.67-1.46,3.21-2.82,4.31-3.83c0.01-0.01,0.02-0.02,0.03-0.03l8.05-7.25  c2.18-1.92,4.74-2.95,7.68-2.95h1.66c2.56,0,3.84,1.28,3.84,3.84v11.39c4.19,0.51,8.62,1.23,13.7,2.23  c2.17,0.43,3.55,2.56,3.09,4.72l-3.32,15.65c-0.46,2.16-2.59,3.54-4.75,3.11c-2.04-0.4-3.95-0.74-5.78-1.04  c-1-0.17-1.98-0.32-2.94-0.46v6.39c0,7.68,4.61,8.7,7.68,8.7C239.333,60.526,241.643,60.276,243.693,60.016z"/>
<path fill="#21DC66" d="M195.733,20.006c-1.14,1-2.2,1.91-3.06,2.65c-2.64,2.28-4.17,5.6-4.17,9.1v8.32c0,1.5,0.32,2.91,0.9,4.17  c-3.19,0.2-6.07,0.54-8.74,1.01c0.04,0.1,0.08,0.21,0.11,0.31c4.73,14.32,11.91,35.59,11.91,35.59c0.89,2.68-0.13,4.09-2.95,4.09  h-21.76c-2.81,0-4.86-1.41-5.76-4.09l-8.34-24.78c-1.03,0.63-2.08,1.29-3.18,1.99v23.04c0,2.56-1.28,3.84-3.96,3.84h-18.04  c1.65-1.8,2.38-4.03,2.5-6.36l0.89-14.72l0.01-0.05v-0.04c0.08-1.75-0.02-5.12-2.64-7.61c-2.69-2.55-6.1-2.38-8.1-2.05l-0.35,0.05  v-3.76c0.12,0.02,0.24,0.04,0.35,0.06c2.13,0.37,5.65,0.49,8.35-2.21c2.48-2.49,2.6-5.77,2.52-7.56v-0.04l-0.01-0.05l-0.89-14.72  c-0.14-2.73-1.12-5.32-3.43-7.25c-1.35-1.13-2.96-1.8-4.14-2.22l-1.01-0.34c-0.59-0.2-1.17-0.39-1.74-0.57V3.836  c0-2.56,1.28-3.84,3.84-3.84h21.89c2.68,0,3.96,1.28,3.96,3.84v26.72c4.07-2.12,8.14-3.94,12.38-5.44  C172.933,21.646,183.113,20.136,195.733,20.006z"/>
<path fill="#58A7FF" d="M376.803,14.896c1.48,9.42-3.85,17.9-9.58,25.11c-5.12,6.27-11.02,12.14-17.49,17.22  c4.25-5.87,7.86-12.32,9.82-19.18c2.96-3.45,5.68-7.07,7.84-11.16c1.34-2.62,2.68-5.69,2.62-8.75c0.01-0.89-0.18-2.55-0.47-3.22  c-0.63-1.43-1.82-1.79-3.26-1.48c-2.39,0.67-4.77,1.65-7.12,2.84c-0.96-2.5-2.26-4.88-3.82-7.04c3.23-1.75,6.6-3.22,10.07-4.03  C371.333,3.976,376.283,9.116,376.803,14.896z M363.533,51.716c-11.63,11.04-25.63,19.92-41.23,24c-6.73,1.7-15.55,2.82-21.91,2.82  h-0.71c-12.63,0.17-24.14-2.02-34.53-4.91c5.05,0.23,9.8,0.14,14.44-0.2c-4.45-2.86-8.84-6.13-12.69-9.77  c-7.38,4.78-11.17,9.76-10.47,13.86c1.56,9.22,25.97,15.25,59.83,9.52c15.35-2.6,29.4-7.15,39.57-12.81  c9.57-5.33,14.6-11.12,13.8-15.87C369.203,55.846,367.073,53.576,363.533,51.716z M355.313,14.976c-3.5,9.6-25.08,18.52-46.87,22.22  c-7.63,1.29-15.46,1.97-22.68,1.97c-13.58,0-25.02-2.41-29.08-7.7c-3.01,18,13.15,33.31,28.22,41.59c6.64,3.02,14.64,2.55,21.8,2.25  c10.75-1.25,27-4.35,34.53-12.29c9.6-10.92,18.63-25.04,16.61-40.13C357.433,20.126,356.553,17.466,355.313,14.976z M320.813,52.146  l-2.03-1.46c0.16-4.86,4.2-9.32,10.53-11.63l1.02,2.82c-3.99,1.46-6.92,3.93-8.04,6.65c3.58-0.94,7.16-1,10.85-0.2l-0.64,2.93  C328.523,50.396,324.703,50.686,320.813,52.146z M308.103,65.706c-2.42,0-4.93-0.67-7.37-2.02l1.46-2.62  c4.76,2.65,9.65,2.08,13.07-1.52l2.18,2.06C314.873,64.316,311.583,65.706,308.103,65.706z M286.953,56.746  c-2.76-1.1-4.9-3.93-4.7-6.9c0.31-4.79,5.78-6.94,9.59-4.86c-1.28,0.25-2.39,1.22-2.49,2.71c-0.09,1.46,0.95,2.85,2.31,3.39  c0.52,0.21,1.08,0.31,1.63,0.24c0.88-0.1,1.52-0.55,1.93-1.16c0.42,3.24-1.24,6.65-4.95,7.08  C289.153,57.366,288.003,57.166,286.953,56.746z M337.803,3.906c-9.58-1.45-21.94-1.04-34.82,1.14  c-12.87,2.19-24.68,5.88-33.24,10.41c-7.84,4.15-12.17,8.71-11.58,12.21c1.17,6.9,21.9,11.3,49.78,6.57  c27.87-4.73,45.99-15.72,44.82-22.62C352.173,8.116,346.573,5.236,337.803,3.906z M266.183,26.176c0-3.35,3.64-5.62,3.64-5.62  c1.5,3,5.4,4.75,9.43,4.78c16.11,0.14,28.68-14.09,40.51-16.8c9.69-2.23,22.22,0.06,24.27,3.17c1.8,2.75,2.21,8.84-29.65,16.65  C298.203,32.316,266.183,34.146,266.183,26.176z M123.663,44.966c0.05,0,0.1-0.01,0.15-0.01c0.03,0,0.05,0,0.08,0  c0.04-0.01,0.08-0.01,0.12-0.02c0.02,0,0.04,0,0.06,0c0.05-0.01,0.1-0.02,0.15-0.02c0.01-0.01,0.03-0.01,0.05-0.01  c0.04-0.01,0.08-0.02,0.11-0.03c0.03,0,0.05-0.01,0.08-0.02c0.03,0,0.06-0.01,0.09-0.02c0.03-0.01,0.05-0.02,0.08-0.03  c0.03-0.01,0.06-0.02,0.08-0.03c0.03-0.01,0.05-0.01,0.08-0.02c0.04-0.02,0.07-0.04,0.11-0.06c0.01,0,0.02,0,0.03-0.01  c0.03-0.02,0.07-0.04,0.1-0.05c0.02-0.01,0.03-0.02,0.05-0.03c0.09-0.06,0.18-0.12,0.26-0.18c0.06-0.06,0.12-0.12,0.18-0.18  c0.01-0.02,0.02-0.03,0.04-0.04c0.02-0.03,0.05-0.06,0.07-0.09c0.01-0.02,0.02-0.03,0.03-0.04c0.01-0.02,0.02-0.03,0.03-0.05  c0.02-0.03,0.04-0.06,0.06-0.09c0.01-0.01,0.01-0.03,0.02-0.04c0.02-0.03,0.04-0.07,0.06-0.1c0.01-0.02,0.02-0.03,0.02-0.05  c0.02-0.04,0.04-0.07,0.06-0.11c0-0.01,0.01-0.02,0.01-0.03c0.02-0.05,0.04-0.1,0.06-0.15c0,0,0-0.01,0.01-0.01  c0.01-0.05,0.03-0.1,0.04-0.15c0.01-0.01,0.01-0.03,0.02-0.04c0.01-0.05,0.02-0.09,0.03-0.13c0.01-0.03,0.02-0.06,0.02-0.08  c0.04-0.15,0.06-0.3,0.08-0.46c0.02-0.11,0.03-0.22,0.03-0.33c0.01-0.04,0.01-0.07,0.01-0.11c0.02-0.27,0.02-0.56,0-0.87  l-0.89-14.72c-0.01-0.19-0.03-0.36-0.05-0.53c-0.01-0.12-0.03-0.24-0.05-0.36c-0.03-0.18-0.08-0.36-0.13-0.52  c-0.06-0.2-0.13-0.38-0.21-0.54c-0.01-0.01-0.01-0.02-0.02-0.03c-0.01-0.03-0.03-0.06-0.04-0.08c-0.02-0.03-0.03-0.07-0.05-0.09  c-0.05-0.09-0.1-0.17-0.16-0.24c-0.01-0.03-0.03-0.05-0.05-0.08c-0.01-0.02-0.03-0.04-0.05-0.06c-0.02-0.03-0.04-0.05-0.06-0.08  c-0.02-0.01-0.03-0.03-0.05-0.05c-0.02-0.03-0.05-0.06-0.08-0.09c-0.01,0-0.01-0.01-0.01-0.01l-0.09-0.09  c-0.01-0.01-0.02-0.02-0.02-0.02c-0.04-0.03-0.07-0.06-0.1-0.09c-0.01-0.01-0.02-0.01-0.03-0.02c-0.03-0.03-0.07-0.06-0.1-0.08  c-0.02-0.02-0.03-0.03-0.05-0.04c-0.04-0.03-0.07-0.06-0.11-0.09c-0.01-0.01-0.03-0.02-0.04-0.03c-0.03-0.02-0.07-0.04-0.1-0.07  c-0.02-0.01-0.04-0.02-0.06-0.03c-0.04-0.03-0.08-0.05-0.12-0.07c-0.01-0.01-0.02-0.02-0.04-0.03c-0.07-0.04-0.14-0.08-0.21-0.12  c-0.05-0.02-0.1-0.05-0.16-0.08c-0.08-0.04-0.17-0.08-0.26-0.12c-0.03-0.02-0.07-0.04-0.11-0.05c-0.08-0.04-0.16-0.07-0.24-0.1  c-0.06-0.03-0.12-0.06-0.19-0.08c-0.07-0.03-0.13-0.05-0.2-0.08s-0.14-0.05-0.21-0.08c-0.21-0.07-0.42-0.15-0.65-0.22  c-0.07-0.03-0.15-0.06-0.23-0.08c-0.05-0.02-0.1-0.04-0.15-0.05c-7.55-2.56-12.93-3.08-17.92-3.08c-13.29,0-22.92,3.86-29.13,10.22  c3.11,6.33,4.52,14.11,4.52,22.89c0,9.05-1.5,17.06-4.82,23.52c6.19,6.56,15.88,10.57,29.3,10.57c4.99,0,10.37-0.51,17.92-3.2  c1.8-0.59,3.13-1.08,3.86-2.22c0.02-0.02,0.03-0.04,0.04-0.06c0.02-0.03,0.05-0.07,0.07-0.11c0-0.01,0.01-0.02,0.02-0.03  c0.02-0.05,0.04-0.09,0.07-0.14c0-0.01,0-0.02,0.01-0.03c0.07-0.15,0.13-0.32,0.19-0.49c0.01-0.04,0.02-0.08,0.03-0.12  c0.01-0.03,0.02-0.06,0.02-0.08c0.02-0.05,0.03-0.09,0.04-0.14c0-0.02,0.01-0.05,0.01-0.08c0.03-0.12,0.05-0.24,0.06-0.37  c0.03-0.19,0.05-0.39,0.06-0.61l0.9-14.72c0.12-2.81-0.9-3.96-3.84-3.45c-0.42,0.06-0.84,0.12-1.26,0.18  c-5.47,0.77-10.88,1.1-13.85,1.1c-9.98,0-12.29-3.84-12.29-9.09c0-6.27,3.72-9.09,12.42-9.09c2.96,0,8.33,0.33,13.78,1.19  c0.44,0.07,0.88,0.14,1.32,0.22c0.22,0.04,0.43,0.07,0.63,0.08c0.05,0.01,0.09,0.01,0.14,0.02c0.02,0,0.04,0,0.06,0  c0.05,0,0.11,0.01,0.16,0.01c0.03,0,0.06,0,0.09,0c0.05,0,0.1,0,0.14,0C123.623,44.966,123.643,44.966,123.663,44.966z"/>
<path fill="#FF5D5B" d="M72.323,52.106l-0.01,1.02c-0.09,6.64-1.07,12.3-2.88,16.95c-2.02,5.17-5.08,9.09-9.11,11.72  c-4.04,2.63-9.06,3.97-15.01,3.97c-5.49,0-10.25-1.53-14.22-4.13c-0.34-0.23-0.68-0.46-1.01-0.7l-0.39-0.29v20.61  c0,0.08,0,0.16,0,0.24c-0.01,0.27-0.04,0.53-0.08,0.78c-0.31,1.88-1.58,2.82-3.89,2.82H3.843c-1.98,0-3.19-0.76-3.64-2.28  c-0.03-0.09-0.05-0.19-0.08-0.29c0-0.03-0.01-0.06-0.01-0.09c-0.06-0.29-0.1-0.6-0.11-0.94v-0.24v-77.57c0-0.17,0-0.33,0.01-0.49  c0.02-0.22,0.05-0.43,0.08-0.63c0.04-0.16,0.07-0.31,0.12-0.46c0.28-0.92,0.84-1.56,1.68-1.92c0.09-0.04,0.19-0.07,0.29-0.11  c0.02,0,0.04-0.01,0.06-0.01c0.4-0.13,0.85-0.2,1.36-0.21l0.24-0.01h21.88l0.25,0.01c0.29,0.01,0.56,0.03,0.81,0.07  c0.03,0,0.06,0.01,0.1,0.01c0.18,0.04,0.35,0.08,0.51,0.12c1.15,0.34,1.86,1.07,2.15,2.18c0.02,0.09,0.04,0.19,0.06,0.28  c0.02,0.1,0.03,0.2,0.05,0.3c0.03,0.23,0.04,0.48,0.04,0.74c0.13-0.1,0.26-0.19,0.39-0.29c0.52-0.39,1.06-0.76,1.62-1.1  c0.14-0.09,0.28-0.17,0.42-0.25c0.28-0.17,0.57-0.33,0.86-0.49c0.44-0.23,0.88-0.45,1.34-0.65c0.31-0.14,0.61-0.27,0.93-0.39  c2.97-1.19,6.34-1.82,10.06-1.82c12.1,0,20.36,5.49,24.32,16.12C71.413,39.466,72.323,45.276,72.323,52.106z M45.003,52.996  c0-7.51-1.98-12-8-12s-8,4.49-8,12c0,7.52,1.98,12,8,12S45.003,60.516,45.003,52.996z"/>
</svg>