<svg width="257" height="106" viewBox="0 0 257 106" fill="none" xmlns="http://www.w3.org/2000/svg">
<path d="M235.536 6C238.096 6.00005 239.376 7.27999 239.376 9.83984V21.2227C243.559 21.7353 247.997 22.4547 253.071 23.457C255.238 23.8853 256.619 26.0128 256.16 28.1738L252.84 43.8262C252.381 45.9872 250.256 47.363 248.088 46.9375C244.928 46.3173 242.071 45.8252 239.376 45.4355V51.8242C239.376 59.5037 243.984 60.5282 247.056 60.5283C248.336 60.5283 250.64 60.2716 252.688 60.0156C255.632 59.6318 256.912 60.7841 256.784 63.5996L255.888 79.0879C255.76 82.1598 254.096 83.9517 251.408 84.5918C247.696 85.4878 242.704 86.1279 237.968 86.1279C217.744 86.1279 209.68 75.7596 209.68 54.5117V44.0811C209.072 44.1022 208.476 44.1267 207.89 44.1562C205.533 44.2751 203.5 42.4312 203.5 40.0713V31.7578C203.5 30.0077 204.264 28.3452 205.589 27.2021C208.855 24.3859 215.106 18.9731 218.109 16.2236C218.12 16.2135 218.132 16.2041 218.144 16.1943L226.192 8.94434C228.368 7.02436 230.928 6 233.872 6H235.536Z" fill="#FFCA46"/>
<path d="M152.728 0C155.415 1.93758e-05 156.696 1.27997 156.696 3.83984V30.5576C160.758 28.44 164.828 26.6166 169.073 25.1201C179.384 21.4854 190.059 20 203.5 20C204.456 20 205.391 20.0028 206.309 20.0078C204.196 21.849 202.113 23.6518 200.63 24.9307C198.646 26.642 197.5 29.1328 197.5 31.7578V40.0713C197.5 41.5803 197.968 42.952 198.754 44.0781C194.185 44.2348 190.237 44.6273 186.667 45.2529C186.703 45.3579 186.742 45.4628 186.776 45.5684C191.5 59.8884 198.68 81.1523 198.68 81.1523C199.576 83.8401 198.552 85.2479 195.736 85.248H173.976C171.16 85.2479 169.112 83.84 168.216 81.1523L159.872 56.375C158.845 57.0063 157.788 57.669 156.696 58.3652V81.4082C156.696 83.968 155.415 85.248 152.728 85.248H130.84C130.396 85.248 129.99 85.208 129.623 85.1309C130.388 84.8051 131.17 84.3929 131.843 83.832C133.384 82.5473 134.095 80.7978 134.196 78.7021L135.092 63.9824L135.094 63.959L135.095 63.9355C135.166 62.3561 135.007 60.1759 133.393 58.6465C131.728 57.069 129.502 57.0873 127.786 57.3799C127.524 57.4197 127.262 57.4574 127 57.4951V47.666C127.291 47.7133 127.582 47.762 127.872 47.8125C129.672 48.1255 131.926 48.0871 133.579 46.4336C135.126 44.8869 135.295 42.7337 135.223 41.1367L135.222 41.1133L135.22 41.0898L134.324 26.3691C134.223 24.2733 133.512 22.5238 131.97 21.2393C131.007 20.4369 129.824 19.9327 128.781 19.5605L127.798 19.2266C127.529 19.1356 127.263 19.047 127 18.9609V3.83984C127 1.28 128.28 5.21328e-05 130.84 0H152.728Z" fill="#21DC66"/>
<path d="M105.93 19C110.922 19 116.298 19.5123 123.85 22.0723C126.538 22.9682 128.202 23.608 128.33 26.5518L129.226 41.2725C129.353 44.0882 128.33 45.3684 125.386 44.8564C119.498 43.8325 113.482 43.4483 110.282 43.4482C101.578 43.4482 97.8662 46.2641 97.8662 52.5361C97.8662 57.7841 100.17 61.624 110.154 61.624C113.354 61.624 119.37 61.2397 125.258 60.3438C128.202 59.8318 129.226 60.9839 129.098 63.7998L128.202 78.5195C128.074 81.4635 126.41 82.104 123.722 83C116.17 85.6879 110.794 86.2002 105.802 86.2002C90.742 86.2001 80.3801 81.1484 74.3984 73.1074C77.047 67.3977 78.3203 60.3198 78.3203 52.1035L78.3135 51.0439C78.2115 43.5412 77.0176 37.0317 74.6494 31.6895C80.68 23.8723 90.998 19.0001 105.93 19Z" fill="#58A7FF"/>
<path d="M45.3115 18.5684C62.8474 18.5684 72.3202 30.0878 72.3203 52.1035C72.3203 74.1195 62.8475 85.7676 45.3115 85.7676C39.1679 85.7675 33.9201 83.8482 29.6963 80.6484V101.256C29.6963 103.816 28.4155 105.096 25.7275 105.096H3.83984C1.27995 105.096 0 103.816 0 101.256V23.6885C0 21.1285 1.27995 19.8477 3.83984 19.8477H25.7275C28.4154 19.8477 29.6961 21.1278 29.6963 23.5596C33.7921 20.3598 39.0399 18.5685 45.3115 18.5684ZM37 41C30.9817 41 29 45.4889 29 53C29 60.5111 30.9817 65 37 65C43.0183 65 45 60.5111 45 53C45 45.4889 43.0183 41 37 41Z" fill="#FF5D5B"/>
</svg>